<?xml version="1.0" encoding="UTF-8" standalone="no"?>
<svg
   width="1024"
   height="1024"
   xml:space="preserve"
   version="1.1"
   viewBox="0 0 1024.0001 1024"
   id="svg1"
   xmlns="http://www.w3.org/2000/svg"
   xmlns:svg="http://www.w3.org/2000/svg"><defs
   id="defs1" />
  
<path
   style="opacity:1;fill:#64748b;fill-opacity:1;stroke:none;stroke-width:3.61879;stroke-dasharray:none"
   d="m 281.74204,563.86025 c 8.34011,-8.06326 24.80868,-26.99343 39.23015,-43.44257 14.42144,-16.44918 26.79535,-30.41677 37.25886,-41.44416 10.46354,-11.02735 19.01607,-19.11386 28.56975,-26.55734 9.55367,-7.44348 20.10789,-14.24351 29.11564,-18.47062 9.00771,-4.22714 16.46845,-5.88122 31.66343,-6.70827 15.19494,-0.82704 38.12307,-0.82704 76.83696,-0.82704 38.7139,0 93.21098,0 121.8755,-0.33458 28.66452,-0.33459 31.49531,-1.0039 36.25634,-2.57317 4.761,-1.56928 11.45191,-4.0384 18.52906,-7.22241 7.07714,-3.184 14.54012,-7.08267 22.90403,-12.28102 8.36392,-5.19839 17.62826,-11.69616 28.24402,-20.53337 10.61575,-8.83724 22.58219,-20.01338 35.12808,-32.55447 12.54585,-12.54105 25.67037,-26.44623 37.89452,-39.18222 12.22415,-12.73599 23.54726,-24.30199 26.89275,-30.08509 3.3455,-5.78311 -1.2867,-5.78311 -81.96701,-5.78311 -80.68028,0 -237.40234,0 -318.91751,0.32476 -81.51518,0.32477 -87.82008,0.97466 -95.73363,3.31391 -7.91355,2.33929 -17.43525,6.36791 -25.73482,11.24138 -8.29957,4.87348 -15.37649,10.59149 -21.87458,16.82956 -6.49813,6.23803 -12.41702,12.99569 -17.30667,20.59828 -4.88969,7.60263 -8.74982,16.04972 -11.51633,24.04217 -2.76651,7.99249 -4.43926,15.52988 -5.27563,29.69549 -0.83638,14.16561 -0.83638,34.95842 -0.83638,57.11645 0,22.15803 0,45.67992 0,65.43367 0,19.75371 0,35.73819 0,45.42007 0,9.68189 0,13.06072 0.10587,16.15202 0.10587,3.09131 0.3176,5.89487 8.65764,-2.16839 z"
   id="path4" /><path
   style="opacity:1;fill:#fafafa;fill-opacity:1;stroke:none;stroke-width:1;stroke-dasharray:none"
   d="m 565.63707,180.99386 c -0.82188,1.00056 -2.46566,3.00167 -4.66334,5.57457 -2.19768,2.5729 -4.94916,5.71744 -7.55778,8.16526 -2.60863,2.44781 -5.07424,4.19875 -8.04021,5.82467 -2.96598,1.62593 -6.43213,3.12673 -9.00501,4.07369 -2.57288,0.94696 -4.25236,1.34003 -30.24951,1.53657 -25.99716,0.19654 -76.30994,0.19654 -102.00286,0.28588 -25.69292,0.0893 -26.76493,0.268 -29.01622,1.28645 -2.25129,1.01844 -5.6817,2.87658 -8.79061,4.91345 -3.1089,2.03688 -5.89612,4.25236 -8.16526,6.55724 -2.26914,2.30488 -4.02008,4.69902 -5.50306,7.50419 -1.48299,2.80517 -2.69793,6.02119 -3.43048,8.04018 -0.73255,2.01899 -0.98269,2.84086 -1.10776,25.90776 -0.12507,23.0669 -0.12507,68.37699 0.28588,92.1224 0.41095,23.74542 1.23283,25.92517 2.4478,28.49806 1.21498,2.57289 2.82299,5.53877 4.75266,8.3082 1.92967,2.76943 4.18088,5.34225 7.37914,7.70073 3.19825,2.35848 7.34327,4.50245 9.38015,5.55663 2.03688,1.05417 1.96542,1.01844 1.92969,7.89741 -0.0357,6.87898 -0.0357,20.67212 0.0357,27.62243 0.0715,6.9503 0.2144,7.0575 -1.8225,6.66442 -2.03689,-0.39309 -6.25344,-1.28642 -10.30931,-2.53714 -4.05588,-1.25071 -7.95083,-2.85872 -11.54216,-4.62758 -3.59132,-1.76887 -6.8788,-3.69847 -10.11278,-5.91402 -3.23398,-2.21555 -6.41426,-4.71689 -9.16582,-7.32552 -2.75156,-2.60863 -5.07424,-5.32437 -7.34338,-8.27248 -2.26915,-2.9481 -4.48463,-6.12838 -6.19988,-8.98715 -1.71526,-2.85876 -2.9302,-5.39584 -4.18091,-8.48689 -1.25071,-3.09105 -2.53711,-6.73587 -3.359,-10.11278 -0.82189,-3.37692 -1.17923,-6.48573 -1.3579,-33.42985 -0.17867,-26.94411 -0.17867,-77.72143 10e-6,-103.91463 0.17867,-26.19321 0.53601,-27.80122 1.32217,-30.53492 0.78617,-2.73371 2.00111,-6.59293 3.6985,-10.72028 1.6974,-4.12735 3.87714,-8.52257 6.91459,-12.97153 3.03745,-4.44895 6.9324,-8.95137 10.57732,-12.56056 3.64493,-3.60918 7.03962,-6.32493 10.88109,-8.77275 3.84147,-2.44781 8.12949,-4.62755 12.66779,-6.52148 4.53829,-1.89393 9.32658,-3.50194 12.57842,-4.30596 3.25183,-0.80402 4.96703,-0.80402 31.62528,-0.80402 26.65825,0 78.25744,0 104.45064,0 26.1932,0 26.97933,0 28.99835,0.37522 2.01902,0.37521 5.27077,1.12561 8.71916,2.23339 3.44838,1.10777 7.0932,2.57285 10.54159,4.30598 3.44838,1.73313 6.70013,3.7342 9.06728,5.26682 2.36714,1.53262 3.84951,2.59667 4.61781,3.11484 0.7683,0.51817 0.82244,0.49036 0.84951,0.47646 0.0271,-0.0139 0.0271,-0.0139 -0.79483,0.98664 z"
   id="path6"
   transform="matrix(3.6008673,0,0,3.6367859,-1111.906,-597.28575)" /><path
   style="opacity:1;fill:#fafafa;fill-opacity:1;stroke:none;stroke-width:1;stroke-dasharray:none"
   d="m 385.1167,446.38303 c 2.86767,-0.009 8.67448,0.0268 14.48132,0.0625 5.80684,0.0357 11.61365,0.0715 14.51703,0.15187 2.90338,0.0804 2.90338,0.20547 2.90338,-4.5562 0,-4.76168 0,-14.40974 0,-24.32609 0,-9.91635 0,-20.1004 0.17158,-25.83287 0.17158,-5.73247 0.51472,-7.0131 1.15795,-9.03211 0.64322,-2.01902 1.58648,-4.77627 2.79069,-7.22697 1.2042,-2.45071 2.66927,-4.59471 4.86696,-6.84599 2.19769,-2.25128 5.12784,-4.6097 8.00447,-6.37855 2.87663,-1.76885 5.69958,-2.94806 7.87938,-3.55554 2.17981,-0.60749 3.71635,-0.64322 13.45411,-0.66109 9.73775,-0.0179 27.67597,-0.0179 37.41356,-0.16081 9.7376,-0.14294 11.27414,-0.42881 13.38248,-1.16137 2.10835,-0.73256 4.78836,-1.91177 7.68286,-3.71637 2.89451,-1.8046 6.00333,-4.23449 11.75662,-10.11286 5.75329,-5.87837 14.15055,-15.20469 18.8318,-19.74299 4.68125,-4.53831 5.64604,-4.28818 -15.70559,-4.16311 -21.35163,0.12507 -65.01797,0.12507 -87.40547,0.12507 -22.38751,0 -23.49525,0 -25.04971,0.42882 -1.55446,0.42882 -3.55554,1.28643 -5.94976,2.64435 -2.39422,1.35792 -5.18143,3.21606 -8.00446,5.53881 -2.82304,2.32275 -5.68172,5.10996 -8.61196,8.84424 -2.93023,3.73427 -5.93185,8.41536 -7.82577,11.98881 -1.89392,3.57345 -2.68006,6.03906 -3.07313,7.87939 -0.39308,1.84032 -0.39308,3.05526 -0.39308,13.45412 0,10.39885 0,29.98081 0,44.25673 0,14.27591 0,23.24448 -0.0357,27.70259 -0.0358,4.45811 -0.10719,4.40452 2.76048,4.39559 z"
   id="path7"
   transform="matrix(3.6008673,0,0,3.6367859,-1110.2683,-600.59395)" /><path
   style="opacity:1;fill:#cbd5e1;fill-opacity:1;stroke:none;stroke-width:1;stroke-dasharray:none"
   d="m 422.77801,444.44997 c 0.34584,-0.44218 1.20495,-1.32656 2.67051,-2.91846 1.46556,-1.5919 3.53749,-3.89124 6.98029,-7.73202 3.4428,-3.84077 8.25624,-9.22273 11.29472,-12.62128 3.03848,-3.39855 4.30185,-4.81352 5.66634,-6.13378 1.36448,-1.32026 2.82999,-2.54573 4.41557,-3.69543 1.58558,-1.14971 3.29113,-2.22357 5.17361,-3.18376 1.88248,-0.96019 3.94177,-1.80665 5.43259,-2.29937 1.49081,-0.49273 2.41307,-0.6317 3.60068,-0.69487 1.18761,-0.0632 2.64048,-0.0505 8.03528,-0.0442 5.39479,0.006 14.7311,0.006 22.83585,0.006 8.10475,0 14.97748,0 19.10248,0 4.12501,0 5.50208,0 7.5109,-0.61908 2.00883,-0.61907 4.64928,-1.85718 7.61198,-3.607 2.96269,-1.74983 6.24745,-4.01126 9.00168,-6.73391 2.75422,-2.72265 4.97775,-5.90634 6.7023,-9.05223 1.72455,-3.14588 2.95002,-6.25378 3.56276,-8.04149 0.61275,-1.78771 0.61275,-2.25515 0.61275,-4.54194 0,-2.28679 0,-6.39274 0,-12.88037 0,-6.48762 0,-15.35648 0,-22.68424 0,-7.32775 0,-13.11399 0,-22.61486 0,-9.50086 0,-22.71572 0,-35.75409 0,-13.03837 0,-25.89948 0,-32.55758 0,-6.6581 0,-7.11291 0.72015,-7.98467 0.72015,-0.87176 2.16039,-2.16039 7.39094,-7.60573 5.23055,-5.44533 14.25101,-15.04694 18.89184,-19.88281 4.64083,-4.83588 4.90186,-4.90582 5.24298,-4.94079 0.34112,-0.035 0.76233,-0.035 1.15546,0.64622 0.39313,0.68119 0.75816,2.04351 1.66782,4.88326 0.90966,2.83975 2.36388,7.15673 3.26394,9.96067 0.90006,2.80393 1.24592,4.09469 1.43543,5.97717 0.18952,1.88248 0.22268,4.35658 0.23927,14.85452 0.0166,10.49795 0.0166,29.01896 0.0166,51.0023 0,21.98334 0,47.42762 0,62.56315 0,15.13553 0,19.9616 0,22.89269 0,2.93109 0,3.96705 -0.27795,5.45788 -0.27796,1.49083 -0.83384,3.43642 -1.88248,6.41807 -1.04863,2.98165 -2.58994,6.99917 -4.39662,10.77676 -1.80668,3.77759 -3.8786,7.31503 -6.1022,10.61252 -2.2236,3.29749 -4.59874,6.35485 -7.52985,9.4502 -2.93112,3.09535 -6.41802,6.22851 -10.22088,9.08381 -3.80286,2.8553 -7.92145,5.43258 -13.21515,7.82042 -5.29369,2.38784 -11.76214,4.5861 -16.67679,5.77369 -4.91464,1.1876 -8.2752,1.36447 -12.65924,1.45291 -4.38404,0.0884 -9.79126,0.0884 -18.74886,0.0884 -8.9576,0 -21.46497,0 -34.71813,0 -13.25316,0 -27.25131,0 -34.6785,-0.0758 -7.4272,-0.0758 -8.28313,-0.22741 -8.79481,-0.30322 -0.51168,-0.0758 -0.67909,-0.0758 -0.33324,-0.51799 z"
   id="path8"
   transform="matrix(3.6008673,0,0,3.6367859,-1111.3601,-595.63167)" /></svg>
